<svg xmlns="http://www.w3.org/2000/svg" width="46" height="46" fill="none" viewBox="0 0 46 46">
  <path fill="#C1292E" stroke="#C1292E" d="M19.7 9c0 2.595 1.665 4.5 3.5 4.5 1.834 0 3.5-1.905 3.5-4.5 0-2.595-1.666-4.5-3.5-4.5-1.835 0-3.5 1.905-3.5 4.5Z"/>
  <path fill="#000" fill-rule="evenodd" d="M23.2 2.832a4.833 4.833 0 0 0-4.832 4.755 4.833 4.833 0 0 0-7.669 3.914v12.95a4.834 4.834 0 0 0-6.586 7.038l6.9 6.9.002.002c3.04 3.02 6.55 4.776 12.186 4.776h3.833a16.333 16.333 0 0 0 16.334-16.334v-11.5a4.833 4.833 0 0 0-7.67-3.913 4.833 4.833 0 0 0-7.665-3.836 4.833 4.833 0 0 0-4.832-4.752Zm12.498 12.581v5.672a1 1 0 1 1-2 0V11.5a2.834 2.834 0 0 0-5.664-.121v7.785a1 1 0 0 1-2 0v-7.591a4.658 4.658 0 0 1 0-.231V7.665a2.834 2.834 0 0 0-5.667 0V11.5l-.001.051v8.576a1 1 0 1 1-2 0v-8.625a2.833 2.833 0 0 0-5.667 0v14.916l1.626 1.626a1 1 0 0 1-1.414 1.414l-1.87-1.87a1 1 0 0 1-.095-.094l-1.39-1.391a2.834 2.834 0 0 0-4.01 3.992l6.879 6.878v.001c2.673 2.654 5.679 4.194 10.776 4.194h3.833a14.333 14.333 0 0 0 14.334-14.334v-11.5a2.833 2.833 0 1 0-5.667 0 1 1 0 0 1-.003.08Z" clip-rule="evenodd"/>
</svg>
