<svg xmlns="http://www.w3.org/2000/svg" width="46" height="46" fill="none" viewBox="0 0 46 46">
  <path fill="#C1292E" stroke="#C1292E" d="M11 16.5c0 2.595-1.665 4.5-3.5 4.5S4 19.095 4 16.5C4 13.905 5.665 12 7.5 12s3.5 1.905 3.5 4.5Z"/>
  <path fill="#000" fill-rule="evenodd" d="M22.999 2.832a4.833 4.833 0 0 1 4.832 4.755A4.833 4.833 0 0 1 35.5 11.5v12.95a4.834 4.834 0 0 1 6.586 7.038l-6.9 6.9-.002.002c-3.04 3.02-6.55 4.776-12.186 4.776h-3.833A16.333 16.333 0 0 1 2.832 26.833v-11.5a4.833 4.833 0 0 1 7.67-3.913 4.833 4.833 0 0 1 7.664-3.836 4.834 4.834 0 0 1 4.833-4.752ZM10.5 15.413v5.672a1 1 0 1 0 2 0V11.5a2.833 2.833 0 0 1 5.664-.121v7.785a1 1 0 0 0 2 0v-7.591a4.931 4.931 0 0 0 0-.231V7.665a2.833 2.833 0 0 1 5.667 0V11.5l.001.051v8.576a1 1 0 1 0 2 0v-8.625a2.833 2.833 0 0 1 5.667 0v14.916l-1.626 1.626a1 1 0 0 0 1.415 1.414l1.87-1.87a1 1 0 0 0 .094-.094l1.39-1.391a2.834 2.834 0 0 1 4.01 3.992l-6.879 6.878v.001c-2.672 2.654-5.679 4.194-10.776 4.194h-3.833A14.333 14.333 0 0 1 4.832 26.833v-11.5a2.833 2.833 0 1 1 5.666 0 1 1 0 0 0 .003.08Z" clip-rule="evenodd"/>
</svg>
