<svg width="77" height="77" viewBox="0 0 77 77" fill="none" xmlns="http://www.w3.org/2000/svg">
<path fill-rule="evenodd" clip-rule="evenodd" d="M38.4992 10.4803C23.0183 10.4803 10.4685 23.03 10.4685 38.511C10.4685 53.9919 23.0183 66.5417 38.4992 66.5417C53.9802 66.5417 66.5299 53.9919 66.5299 38.511C66.5299 23.03 53.9802 10.4803 38.4992 10.4803ZM2.36328 38.511C2.36328 18.5536 18.5419 2.375 38.4992 2.375C58.4566 2.375 74.6352 18.5536 74.6352 38.511C74.6352 58.4683 58.4566 74.6469 38.4992 74.6469C18.5419 74.6469 2.36328 58.4683 2.36328 38.511ZM38.5019 21.625C40.7401 21.625 42.5545 23.4394 42.5545 25.6776V38.511C42.5545 40.7492 40.7401 42.5636 38.5019 42.5636C36.2636 42.5636 34.4492 40.7492 34.4492 38.511V25.6776C34.4492 23.4394 36.2636 21.625 38.5019 21.625ZM38.5019 47.2734C36.2636 47.2734 34.4492 49.0879 34.4492 51.3261C34.4492 53.5643 36.2636 55.3787 38.5019 55.3787H38.5379C40.7761 55.3787 42.5906 53.5643 42.5906 51.3261C42.5906 49.0879 40.7761 47.2734 38.5379 47.2734H38.5019Z" fill="#D9A927"/>
</svg>
