<svg xmlns="http://www.w3.org/2000/svg" xmlns:xlink="http://www.w3.org/1999/xlink" 
viewBox="0 0 100 125" version="1.1" x="0px" y="0px">
<title>Bell v4.5</title><desc>Created with Sketch.</desc>
<g stroke="none" stroke-width="1" fill="none" fill-rule="evenodd"><g fill-rule="nonzero" fill="#000000">

<path d="M50,21 C54.2902198,21 57.7945785,24.378202 57.991291,28.6155606 C65.466258,31.7766752 70.5,39.1512075 70.5,47.4991727 L70.5,58.0191676 C73.8508304,58.2759603 76.5,61.0810011 76.5,64.4999433 L76.5,68.5024554 C76.5,70.4372218 74.9290518,72 72.9974518,72 L27.0025482,72 C25.0664412,72 23.5,70.4367178 23.5,68.5024554 L23.5,64.4999433 C23.5,61.0851474 26.1457071,58.2760728 29.5,58.0191559 L29.5,47.4991727 C29.5,39.1551582 34.5349455,31.7792266 42.0086584,28.6167436 C42.2049136,24.3778963 45.7126965,21 50,21 Z M71.5,67 L71.5,64.4999433 C71.5,63.6755558 70.8231019,63 69.9979131,63 C67.5136555,63 65.5,60.9862455 65.5,58.5017862 L65.5,47.4991727 C65.5,40.7119218 61.0986338,34.774803 54.7370805,32.7362184 L53,32.1795641 L53,28.9915416 C53,27.3424215 51.6561476,26 50,26 C48.345898,26 47,27.3427858 47,28.9915416 L47,32.179892 L45.2634515,32.7368037 C38.9030147,34.7765981 34.5,40.7160281 34.5,47.4991727 L34.5,58.5017862 C34.5,60.9854265 32.4831081,63 30.0020869,63 C29.1761017,63 28.5,63.6767685 28.5,64.4999433 L28.5,67 L71.5,67 Z M40.5,72 L45.5,72 C45.5,74.4852814 47.5147186,76.5 50,76.5 C52.4852814,76.5 54.5,74.4852814 54.5,72 L59.5,72 C59.5,77.2467051 55.2467051,81.5 50,81.5 C44.7532949,81.5 40.5,77.2467051 40.5,72 Z"/></g></g></svg>