<svg width="24" height="24" viewBox="0 0 24 24" fill="none" xmlns="http://www.w3.org/2000/svg">
<path d="M12 2C10.0222 2 8.08879 2.58649 6.4443 3.6853C4.79981 4.78412 3.51809 6.3459 2.76121 8.17317C2.00433 10.0004 1.8063 12.0111 2.19215 13.9509C2.578 15.8907 3.53041 17.6725 4.92894 19.0711C6.32746 20.4696 8.10929 21.422 10.0491 21.8079C11.9889 22.1937 13.9996 21.9957 15.8268 21.2388C17.6541 20.4819 19.2159 19.2002 20.3147 17.5557C21.4135 15.9112 22 13.9778 22 12C22 10.6868 21.7413 9.38642 21.2388 8.17317C20.7363 6.95991 19.9997 5.85752 19.0711 4.92893C18.1425 4.00035 17.0401 3.26375 15.8268 2.7612C14.6136 2.25866 13.3132 2 12 2Z" fill="#06A77D" fill-opacity="0.12"/>
<path d="M10.4301 13.0908L14.7201 8.79079C14.9074 8.60454 15.1609 8.5 15.4251 8.5C15.6892 8.5 15.9427 8.60454 16.1301 8.79079C16.2238 8.88376 16.2982 8.99436 16.3489 9.11622C16.3997 9.23807 16.4258 9.36878 16.4258 9.50079C16.4258 9.6328 16.3997 9.76351 16.3489 9.88537C16.2982 10.0072 16.2238 10.1178 16.1301 10.2108L11.1301 15.2108C10.9438 15.3955 10.6924 15.4997 10.4301 15.5008C10.2984 15.5016 10.168 15.4763 10.0461 15.4266C9.92431 15.3768 9.81349 15.3035 9.72005 15.2108L7.37005 12.8508C7.26537 12.7611 7.18035 12.6508 7.12033 12.5268C7.0603 12.4027 7.02657 12.2676 7.02125 12.1298C7.01593 11.9921 7.03914 11.8548 7.08941 11.7265C7.13969 11.5981 7.21595 11.4816 7.3134 11.3841C7.41086 11.2867 7.5274 11.2104 7.65573 11.1602C7.78405 11.1099 7.92139 11.0867 8.0591 11.092C8.19682 11.0973 8.33196 11.131 8.45602 11.1911C8.58009 11.2511 8.6904 11.3361 8.78005 11.4408L10.4301 13.0908Z" fill="#06A77D"/>
</svg>
