<svg width="20" height="20" viewBox="0 0 20 20" fill="none" xmlns="http://www.w3.org/2000/svg">
<path d="M6.70711 10.5H8.70711V12.5C8.70711 12.7652 8.81246 13.0196 9 13.2071C9.18754 13.3946 9.44189 13.5 9.70711 13.5C9.97232 13.5 10.2267 13.3946 10.4142 13.2071C10.6017 13.0196 10.7071 12.7652 10.7071 12.5V10.5H12.7071C12.9723 10.5 13.2267 10.3946 13.4142 10.2071C13.6017 10.0196 13.7071 9.76522 13.7071 9.5C13.7071 9.23478 13.6017 8.98043 13.4142 8.79289C13.2267 8.60536 12.9723 8.5 12.7071 8.5H10.7071V6.5C10.7071 6.23478 10.6017 5.98043 10.4142 5.79289C10.2267 5.60536 9.97232 5.5 9.70711 5.5C9.44189 5.5 9.18754 5.60536 9 5.79289C8.81246 5.98043 8.70711 6.23478 8.70711 6.5V8.5H6.70711C6.44189 8.5 6.18754 8.60536 6 8.79289C5.81246 8.98043 5.70711 9.23478 5.70711 9.5C5.70711 9.76522 5.81246 10.0196 6 10.2071C6.18754 10.3946 6.44189 10.5 6.70711 10.5Z" fill="#0E2E4A"/>
<path fill-rule="evenodd" clip-rule="evenodd" d="M19 0H1C0.734784 0 0.48043 0.105357 0.292893 0.292893C0.105357 0.48043 0 0.734784 0 1V19C0 19.2652 0.105357 19.5196 0.292893 19.7071C0.48043 19.8946 0.734784 20 1 20H13.5858C13.851 20 14.1054 19.8946 14.2929 19.7071L19.7071 14.2929C19.8946 14.1054 20 13.851 20 13.5858V1C20 0.734784 19.8946 0.48043 19.7071 0.292893C19.5196 0.105357 19.2652 0 19 0ZM2 2V18H12V13C12 12.4477 12.4477 12 13 12H18V2H2ZM14 17V14H17L14 17Z" fill="#0E2E4A"/>
</svg>
