<svg width="26" height="26" viewBox="0 0 26 26" fill="none" xmlns="http://www.w3.org/2000/svg">
<path fill-rule="evenodd" clip-rule="evenodd" d="M6.92621 0.989554C7.45341 0.846269 7.97654 0.9408 8.44721 1.17614C9.34078 1.62292 9.64722 2.47664 9.65829 3.28381C9.6688 4.05005 9.42944 4.90738 9.09936 5.74149C8.48146 7.30295 7.41186 9.10654 6.31505 10.7384C6.44371 11.1151 6.62939 11.5507 6.8575 11.9187C7.22377 12.5095 7.4687 12.5703 7.49977 12.5706C7.49977 12.5705 7.52772 12.5697 7.58844 12.5489C7.65169 12.5273 7.73558 12.4892 7.83862 12.4276C7.97473 12.3463 8.1244 12.2361 8.28066 12.1007C8.34259 11.5188 8.45877 10.7949 8.64851 10.1856C8.76026 9.8268 8.93367 9.38412 9.2228 9.05097C9.37555 8.87497 9.61042 8.6717 9.94265 8.57587C10.3005 8.47265 10.652 8.52843 10.9472 8.67606C11.5752 8.99006 11.7364 9.60154 11.7294 10.0414C11.7228 10.4528 11.5839 10.8626 11.4288 11.2036C11.2143 11.6751 10.8943 12.1752 10.5231 12.6367C10.5725 12.6885 10.6236 12.7376 10.676 12.783C10.8999 12.9766 11.0964 13.06 11.2514 13.0753C11.4443 13.0943 12.1523 13.0298 13.1056 11.1233L14.8944 12.0177C13.8477 14.1112 12.553 15.2133 11.0552 15.0657C10.3647 14.9976 9.79382 14.6643 9.36749 14.2955C9.2633 14.2054 9.16462 14.1105 9.07158 14.0126C9.00312 14.0589 8.93392 14.103 8.86411 14.1447C8.48996 14.3682 8.01597 14.5706 7.5 14.5706C6.33007 14.5706 5.56537 13.6302 5.15764 12.9725C5.09161 12.8659 5.02877 12.757 4.96913 12.6468C4.55061 13.2137 4.14707 13.7375 3.78087 14.1953L2.21913 12.9459C2.81341 12.203 3.51492 11.2727 4.21502 10.2662C4.19598 8.58124 4.30377 6.25495 4.70541 4.40806C4.91394 3.44916 5.23089 2.47213 5.75774 1.80432C6.03314 1.45522 6.41489 1.12852 6.92621 0.989554ZM6.35647 6.85061C6.4265 6.1426 6.52534 5.45104 6.65973 4.83306C6.85533 3.93364 7.09709 3.33567 7.32793 3.04306C7.3867 2.96857 7.4272 2.93644 7.44618 2.92396C7.46461 2.92769 7.49885 2.93802 7.55279 2.96499C7.55341 2.9653 7.55439 2.96562 7.55569 2.96604C7.57397 2.97195 7.65418 2.99787 7.65848 3.31123C7.66364 3.68771 7.53626 4.25611 7.23968 5.00557C7.01329 5.57766 6.71033 6.2019 6.35647 6.85061ZM7.45848 2.91693C7.45848 2.91695 7.45806 2.91716 7.4572 2.91749ZM7.43628 2.92234C7.43173 2.9228 7.42927 2.92252 7.42917 2.92227C7.42907 2.92201 7.43134 2.92179 7.43628 2.92234Z" fill="#333333"/>
<path d="M1.5 17.0705C1.5 16.5182 1.94772 16.0705 2.5 16.0705H11.5V18.0705H2.5C1.94772 18.0705 1.5 17.6228 1.5 17.0705Z" fill="#333333"/>
<path fill-rule="evenodd" clip-rule="evenodd" d="M18.5 25.0781C21.8137 25.0781 24.5 22.3918 24.5 19.0781C24.5 15.7644 21.8137 13.0781 18.5 13.0781C15.1863 13.0781 12.5 15.7644 12.5 19.0781C12.5 22.3918 15.1863 25.0781 18.5 25.0781ZM21.8322 17.4518C22.0386 17.2684 22.0572 16.9523 21.8737 16.7459C21.6902 16.5396 21.3742 16.521 21.1678 16.7044L17.0973 20.3227L16.416 19.3008C16.2628 19.071 15.9524 19.0089 15.7226 19.1621C15.4929 19.3153 15.4308 19.6257 15.584 19.8555L16.584 21.3555C16.6642 21.4758 16.7927 21.5556 16.9361 21.574C17.0796 21.5925 17.2241 21.5479 17.3322 21.4518L21.8322 17.4518Z" fill="#6AB134"/>
</svg>
