<?xml version="1.0" encoding="utf-8"?>
<!-- Generator: Adobe Illustrator 24.1.1, SVG Export Plug-In . SVG Version: 6.00 Build 0)  -->
<svg version="1.1" id="Layer_1" xmlns="http://www.w3.org/2000/svg" xmlns:xlink="http://www.w3.org/1999/xlink" x="0px" y="0px"
	 viewBox="0 0 512 512" style="enable-background:new 0 0 512 512;" xml:space="preserve">
<g>
	<path d="M128.31,323.79c-6.31,0.7-12.25,1.03-17.81,1.03c-28.29-0.07-46.6-8.22-58.15-18.97c-11.52-10.82-17-24.97-17.05-40.05
		c-0.01-16.04,6.52-32.71,19.19-45.26c12.71-12.51,31.43-21.44,58.02-21.52c4.92,0,10.1,0.32,15.55,1
		c5.86,0.73,11.66-1.49,15.52-5.95c3.87-4.46,5.25-10.52,3.7-16.21c-3.94-14.45-5.65-27.39-5.65-38.87
		c0.02-16.21,3.35-29.54,8.91-40.77c8.35-16.79,21.98-29.33,39.12-38.01c17.09-8.64,37.58-13.08,57.89-13.06
		c25.51-0.05,50.46,7.05,67.74,19.36c8.68,6.14,15.48,13.45,20.15,21.83c4.65,8.4,7.33,17.93,7.35,29.44c0,3.05-0.2,6.25-0.61,9.6
		c-0.74,5.91,1.57,11.81,6.12,15.66c4.55,3.85,10.75,5.14,16.46,3.42c13.75-4.13,25.91-5.88,36.53-5.88
		c26.37,0.2,43.56,10.08,56.15,25.57c12.45,15.55,19.29,37.82,19.25,60.95c0.05,24.69-7.78,49.81-22.12,67.75
		c-14.49,17.92-34.31,29.46-63.2,29.64c-3.86,0-7.89-0.22-12.09-0.69c-9.69-1.08-18.41,5.91-19.49,15.6
		c-1.08,9.69,5.91,18.41,15.6,19.49c5.45,0.6,10.78,0.9,15.98,0.9c39.2,0.18,70.87-17.52,90.84-42.98
		c20.13-25.44,29.74-57.85,29.78-89.7c-0.04-29.81-8.47-59.61-26.93-82.92c-18.31-23.36-47.65-39.1-83.77-38.9
		c-14.52,0-30.09,2.39-46.68,7.37l5.07,16.9l17.51,2.18c0.59-4.74,0.88-9.4,0.88-13.96c0.02-17.21-4.25-33.08-11.81-46.61
		c-11.36-20.37-29.6-35.22-50.39-44.88c-20.85-9.68-44.48-14.42-68.34-14.43c-33.73,0.05-68.23,9.48-95.41,30.43
		c-13.54,10.47-25.14,23.94-33.22,40.24c-8.1,16.29-12.61,35.33-12.59,56.47c0,15,2.23,31.06,6.9,48.16l17.03-4.64l2.19-17.51
		c-6.85-0.86-13.5-1.27-19.94-1.27c-34.81-0.08-63.52,12.44-82.89,31.77C10.22,214.75,0.01,240.3,0,265.79
		c-0.05,23.86,9.18,48.05,28.23,65.83c19.02,17.84,47.13,28.56,82.27,28.49c6.95,0,14.18-0.41,21.71-1.24
		c9.69-1.08,16.67-9.8,15.59-19.49C146.72,329.69,138,322.71,128.31,323.79L128.31,323.79z M154.53,425.7l88.24,70.6
		c6.45,5.16,15.6,5.16,22.05,0l88.24-70.6c7.61-6.09,8.84-17.2,2.76-24.81c-6.09-7.61-17.2-8.85-24.81-2.76l-77.22,61.77
		l-77.22-61.77c-7.61-6.09-18.72-4.85-24.81,2.76C145.69,408.51,146.92,419.62,154.53,425.7L154.53,425.7z M236.15,235.43v247.08
		c0,9.75,7.9,17.65,17.65,17.65c9.75,0,17.65-7.9,17.65-17.65V235.43c0-9.75-7.9-17.65-17.65-17.65
		C244.05,217.79,236.15,225.69,236.15,235.43z"/>
</g>
</svg>