<svg width="12" height="12" viewBox="0 0 12 12" fill="none" xmlns="http://www.w3.org/2000/svg">
<path d="M7.33815 9.08329L6.58565 9.84162V6.58079C6.58565 6.42608 6.52419 6.27771 6.41479 6.16831C6.3054 6.05891 6.15703 5.99746 6.00232 5.99746C5.84761 5.99746 5.69923 6.05891 5.58984 6.16831C5.48044 6.27771 5.41898 6.42608 5.41898 6.58079V9.84162L4.66648 9.08329C4.61209 9.0289 4.54752 8.98576 4.47646 8.95632C4.4054 8.92689 4.32923 8.91174 4.25232 8.91174C4.1754 8.91174 4.09923 8.92689 4.02817 8.95632C3.95711 8.98576 3.89254 9.0289 3.83815 9.08329C3.78376 9.13768 3.74062 9.20225 3.71118 9.27331C3.68175 9.34437 3.6666 9.42054 3.6666 9.49746C3.6666 9.57437 3.68175 9.65054 3.71118 9.7216C3.74062 9.79266 3.78376 9.85723 3.83815 9.91162L5.58815 11.6616C5.64363 11.7147 5.70904 11.7564 5.78065 11.7841C5.85047 11.815 5.92597 11.8309 6.00232 11.8309C6.07866 11.8309 6.15416 11.815 6.22398 11.7841C6.29559 11.7564 6.36101 11.7147 6.41648 11.6616L8.16648 9.91162C8.27633 9.80178 8.33804 9.6528 8.33804 9.49746C8.33804 9.34211 8.27633 9.19313 8.16648 9.08329C8.05664 8.97345 7.90766 8.91174 7.75232 8.91174C7.59697 8.91174 7.44799 8.97345 7.33815 9.08329ZM9.74732 2.62579C9.39089 1.80679 8.77577 1.12725 7.99619 0.691297C7.21662 0.255343 6.3156 0.0870255 5.43121 0.212137C4.54683 0.337249 3.72786 0.748888 3.0998 1.38398C2.47174 2.01906 2.06924 2.84256 1.95398 3.72829C1.39782 3.86148 0.909946 4.19428 0.582997 4.66348C0.256048 5.13269 0.112799 5.70563 0.180454 6.2735C0.248108 6.84137 0.521955 7.36461 0.949989 7.74387C1.37802 8.12313 1.93043 8.33199 2.50232 8.33079C2.65703 8.33079 2.8054 8.26933 2.9148 8.15994C3.02419 8.05054 3.08565 7.90217 3.08565 7.74746C3.08565 7.59275 3.02419 7.44437 2.9148 7.33498C2.8054 7.22558 2.65703 7.16412 2.50232 7.16412C2.1929 7.16412 1.89615 7.04121 1.67736 6.82241C1.45857 6.60362 1.33565 6.30688 1.33565 5.99746C1.33565 5.68804 1.45857 5.39129 1.67736 5.1725C1.89615 4.95371 2.1929 4.83079 2.50232 4.83079C2.65703 4.83079 2.8054 4.76933 2.9148 4.65993C3.02419 4.55054 3.08565 4.40217 3.08565 4.24746C3.08714 3.55754 3.33315 2.89048 3.77997 2.3648C4.2268 1.83911 4.8455 1.48884 5.52617 1.37622C6.20684 1.26359 6.90539 1.39589 7.49773 1.74963C8.09007 2.10336 8.53784 2.65562 8.76148 3.30829C8.79483 3.40853 8.85477 3.49783 8.9349 3.56667C9.01504 3.6355 9.11236 3.68128 9.21648 3.69912C9.60502 3.77255 9.95724 3.97539 10.2157 4.2746C10.4743 4.57381 10.6238 4.95175 10.64 5.34683C10.6563 5.74191 10.5382 6.13085 10.3052 6.45026C10.0721 6.76967 9.73769 7.00073 9.35648 7.10579C9.28218 7.12494 9.21237 7.15854 9.15105 7.20467C9.08973 7.2508 9.03809 7.30855 8.99909 7.37464C8.96009 7.44072 8.93449 7.51384 8.92375 7.58982C8.913 7.6658 8.91733 7.74315 8.93648 7.81746C8.95563 7.89176 8.98923 7.96157 9.03536 8.02289C9.08149 8.08421 9.13925 8.13585 9.20533 8.17485C9.27142 8.21385 9.34453 8.23945 9.42051 8.25019C9.49649 8.26093 9.57384 8.25661 9.64815 8.23746C10.262 8.07524 10.8062 7.71712 11.1981 7.21748C11.5899 6.71784 11.808 6.10398 11.8192 5.46911C11.8304 4.83425 11.6342 4.21306 11.2602 3.69989C10.8863 3.18672 10.3551 2.8096 9.74732 2.62579Z" fill="#1B1C1E"/>
</svg>
