<svg width="22" height="23" viewBox="0 0 22 23" fill="none" xmlns="http://www.w3.org/2000/svg">
<path d="M17.4883 6H7.94922C6.59655 6 5.5 7.09655 5.5 8.44922V17.9883C5.5 19.3409 6.59655 20.4375 7.94922 20.4375H17.4883C18.8409 20.4375 19.9375 19.3409 19.9375 17.9883V8.44922C19.9375 7.09655 18.8409 6 17.4883 6Z" stroke="#0E2E4A" stroke-width="1.375" stroke-linejoin="round"/>
<path d="M16.4785 6L16.5 4.96875C16.4982 4.33113 16.2441 3.72014 15.7932 3.26928C15.3424 2.81841 14.7314 2.56431 14.0938 2.5625H4.8125C4.08382 2.56465 3.38559 2.85508 2.87034 3.37034C2.35508 3.88559 2.06465 4.58382 2.0625 5.3125V14.5938C2.06431 15.2314 2.31841 15.8424 2.76928 16.2932C3.22014 16.7441 3.83113 16.9982 4.46875 17H5.5M12.7188 9.78125V16.6562M16.1562 13.2188H9.28125" stroke="#0E2E4A" stroke-width="1.375" stroke-linecap="round" stroke-linejoin="round"/>
</svg>
