<svg width="84" height="77" viewBox="0 0 84 77" fill="none" xmlns="http://www.w3.org/2000/svg">
<path d="M82.6161 62.9304C71.8825 43.7971 61.0734 24.5892 50.3398 5.45596C48.4501 2.0927 45.8801 0 41.9495 0C38.0945 0 35.5245 2.0927 33.7103 5.38122C23.0523 24.4397 12.3188 43.4982 1.58519 62.5567C-2.49659 69.8811 1.66079 76.9813 9.97553 76.9813C20.6335 76.9813 31.2159 76.9813 41.8739 76.9813C52.6075 76.9813 63.4166 77.0561 74.1502 76.9066C75.9643 76.9066 77.9296 76.4581 79.517 75.636C84.0523 73.1696 85.2617 67.7137 82.6161 62.9304ZM68.7078 67.1905C67.574 67.7884 66.1378 68.0874 64.8528 68.0874C57.2184 68.1621 49.5083 68.1621 41.8739 68.1621C34.315 68.1621 26.7562 68.1621 19.1217 68.1621C13.1502 68.1621 10.2023 63.0798 13.1502 57.9228C20.7847 44.3951 28.4191 30.7925 35.978 17.2647C37.263 14.9478 39.0771 13.453 41.8739 13.453C44.6707 13.453 46.4848 14.9478 47.8454 17.3395C55.4798 31.0167 63.1899 44.6193 70.8243 58.2965C72.7896 61.5103 71.9581 65.4715 68.7078 67.1905Z" fill="#C1292E"/>
<path d="M47.5353 32.3788C47.4971 32.5472 47.4517 32.689 47.4308 32.8603L45.2697 50.5931C45.1185 52.0924 43.8332 53.2169 42.321 53.2169C40.8089 53.2169 39.5235 52.0924 39.3723 50.5931L37.1797 32.6014C37.1797 32.4515 37.1797 32.3015 37.1797 32.0766C37.3309 29.3029 39.5991 27.1289 42.3966 27.1289C45.0974 27.1289 47.3049 29.1552 47.5904 31.7911C47.6107 31.9792 47.5772 32.1944 47.5353 32.3788Z" fill="#C1292E"/>
<path d="M42.3225 63.9415C44.6191 63.9415 46.4809 62.0955 46.4809 59.8184C46.4809 57.5413 44.6191 55.6953 42.3225 55.6953C40.0259 55.6953 38.1641 57.5413 38.1641 59.8184C38.1641 62.0955 40.0259 63.9415 42.3225 63.9415Z" fill="#C1292E"/>
</svg>
