<svg width="20" height="20" viewBox="0 0 20 20" fill="none" xmlns="http://www.w3.org/2000/svg">
<path d="M10.92 14.12C10.8981 14.0563 10.8678 13.9958 10.83 13.94C10.7931 13.8876 10.753 13.8375 10.71 13.79L10.56 13.67L10.38 13.58C10.3205 13.5496 10.2562 13.5293 10.19 13.52C10.0293 13.4879 9.86325 13.4957 9.70631 13.5427C9.54938 13.5898 9.40642 13.6747 9.29 13.79L9.17 13.94C9.13215 13.9958 9.10189 14.0563 9.08 14.12C9.05117 14.1767 9.03095 14.2374 9.02 14.3C9.01509 14.3666 9.01509 14.4334 9.02 14.5C9.02158 14.6307 9.04876 14.7598 9.1 14.88C9.15064 15.0012 9.22167 15.1128 9.31 15.21C9.44951 15.3505 9.62756 15.4463 9.8216 15.4855C10.0156 15.5247 10.2169 15.5054 10.4 15.43C10.5195 15.372 10.6305 15.298 10.73 15.21C10.818 15.1105 10.892 14.9995 10.95 14.88C10.991 14.7578 11.008 14.6287 11 14.5C11.0049 14.4334 11.0049 14.3666 11 14.3C10.9828 14.2363 10.9558 14.1755 10.92 14.12ZM10 8.50002C9.73478 8.50002 9.48043 8.60538 9.29289 8.79292C9.10536 8.98045 9 9.23481 9 9.50002V11.5C9 11.7652 9.10536 12.0196 9.29289 12.2071C9.48043 12.3947 9.73478 12.5 10 12.5C10.2652 12.5 10.5196 12.3947 10.7071 12.2071C10.8946 12.0196 11 11.7652 11 11.5V9.50002C11 9.23481 10.8946 8.98045 10.7071 8.79292C10.5196 8.60538 10.2652 8.50002 10 8.50002ZM17 3.50002H10.72L10.4 2.50002C10.1926 1.91325 9.80775 1.40553 9.2989 1.04718C8.79005 0.688841 8.18236 0.497623 7.56 0.500022H3C2.20435 0.500022 1.44129 0.816093 0.87868 1.3787C0.316071 1.94131 0 2.70437 0 3.50002V16.5C0 17.2957 0.316071 18.0587 0.87868 18.6213C1.44129 19.184 2.20435 19.5 3 19.5H17C17.7956 19.5 18.5587 19.184 19.1213 18.6213C19.6839 18.0587 20 17.2957 20 16.5V6.50002C20 5.70437 19.6839 4.94131 19.1213 4.3787C18.5587 3.81609 17.7956 3.50002 17 3.50002ZM18 16.5C18 16.7652 17.8946 17.0196 17.7071 17.2071C17.5196 17.3947 17.2652 17.5 17 17.5H3C2.73478 17.5 2.48043 17.3947 2.29289 17.2071C2.10536 17.0196 2 16.7652 2 16.5V3.50002C2 3.23481 2.10536 2.98045 2.29289 2.79292C2.48043 2.60538 2.73478 2.50002 3 2.50002H7.56C7.76964 2.49948 7.97416 2.56484 8.14463 2.68686C8.3151 2.80889 8.44291 2.9814 8.51 3.18002L9.05 4.82002C9.11709 5.01864 9.2449 5.19116 9.41537 5.31318C9.58584 5.4352 9.79036 5.50056 10 5.50002H17C17.2652 5.50002 17.5196 5.60538 17.7071 5.79292C17.8946 5.98045 18 6.23481 18 6.50002V16.5Z" fill="#0E2E4A"/>
</svg>
