<svg width="21" height="12" viewBox="0 0 21 12" fill="none" xmlns="http://www.w3.org/2000/svg">
<g id="Group">
<path id="Vector" d="M10.5 0C6.66094 0 3.67031 2.2875 0 6C3.15938 9.17344 5.8125 12 10.5 12C15.1828 12 18.6281 8.41875 21 6.06562C18.5719 3.30937 15.1313 0 10.5 0ZM10.5 10.2797C8.18437 10.2797 6.3 8.35781 6.3 6C6.3 3.6375 8.18437 1.72031 10.5 1.72031C12.8156 1.72031 14.7 3.64219 14.7 6C14.7 8.3625 12.8156 10.2797 10.5 10.2797Z" fill="#1B1C1E"/>
<g id="Group_2">
<path id="Vector_2" d="M10.4999 4.49844C10.4999 4.12813 10.6358 3.79063 10.8562 3.52813C10.739 3.50938 10.6218 3.5 10.4999 3.5C9.1499 3.5 8.04834 4.62031 8.04834 5.99844C8.04834 7.37656 9.1499 8.49687 10.4999 8.49687C11.8499 8.49687 12.9515 7.37656 12.9515 5.99844C12.9515 5.89063 12.9421 5.78281 12.9327 5.675C12.6749 5.87656 12.3562 5.99844 12.0046 5.99844C11.1702 5.99844 10.4999 5.32813 10.4999 4.49844Z" fill="#1B1C1E"/>
</g>
</g>
</svg>
