<svg width="19" height="20" viewBox="0 0 19 20" fill="none" xmlns="http://www.w3.org/2000/svg">
<g id="uil:file-search-alt">
<path id="Vector" d="M9.50065 16.7891H3.95898C3.74902 16.7891 3.54766 16.7057 3.39919 16.5572C3.25073 16.4087 3.16732 16.2074 3.16732 15.9974V4.91406C3.16732 4.7041 3.25073 4.50274 3.39919 4.35427C3.54766 4.2058 3.74902 4.1224 3.95898 4.1224H7.91732V6.4974C7.91732 7.12729 8.16754 7.73138 8.61294 8.17677C9.05834 8.62217 9.66243 8.8724 10.2923 8.8724H12.6673V9.66406C12.6673 9.87403 12.7507 10.0754 12.8992 10.2239C13.0477 10.3723 13.249 10.4557 13.459 10.4557C13.6689 10.4557 13.8703 10.3723 14.0188 10.2239C14.1672 10.0754 14.2507 9.87403 14.2507 9.66406V8.03323C14.2424 7.9605 14.2265 7.88885 14.2032 7.81948V7.74823C14.1651 7.66683 14.1143 7.59201 14.0527 7.52656L9.30273 2.77656C9.23729 2.71498 9.16247 2.66421 9.08107 2.62615C9.05744 2.62279 9.03345 2.62279 9.00982 2.62615C8.9294 2.58002 8.84058 2.55042 8.74857 2.53906H3.95898C3.3291 2.53906 2.725 2.78929 2.27961 3.23468C1.83421 3.68008 1.58398 4.28417 1.58398 4.91406V15.9974C1.58398 16.6273 1.83421 17.2314 2.27961 17.6768C2.725 18.1222 3.3291 18.3724 3.95898 18.3724H9.50065C9.71061 18.3724 9.91198 18.289 10.0604 18.1405C10.2089 17.9921 10.2923 17.7907 10.2923 17.5807C10.2923 17.3708 10.2089 17.1694 10.0604 17.0209C9.91198 16.8725 9.71061 16.7891 9.50065 16.7891ZM9.50065 5.23865L11.5511 7.28906H10.2923C10.0824 7.28906 9.88099 7.20566 9.73252 7.05719C9.58406 6.90872 9.50065 6.70736 9.50065 6.4974V5.23865ZM5.54232 7.28906C5.33235 7.28906 5.13099 7.37247 4.98253 7.52094C4.83406 7.6694 4.75065 7.87077 4.75065 8.08073C4.75065 8.29069 4.83406 8.49206 4.98253 8.64052C5.13099 8.78899 5.33235 8.8724 5.54232 8.8724H6.33398C6.54395 8.8724 6.74531 8.78899 6.89378 8.64052C7.04224 8.49206 7.12565 8.29069 7.12565 8.08073C7.12565 7.87077 7.04224 7.6694 6.89378 7.52094C6.74531 7.37247 6.54395 7.28906 6.33398 7.28906H5.54232ZM17.1877 17.0186L16.2615 16.1003C16.5575 15.5836 16.676 14.984 16.5988 14.3935C16.5216 13.8029 16.2529 13.254 15.834 12.8307C15.4485 12.4315 14.9516 12.1576 14.4082 12.0447C13.8648 11.9319 13.3 11.9853 12.7874 12.198C12.2748 12.4108 11.8381 12.7729 11.5343 13.2374C11.2304 13.7019 11.0735 14.2471 11.084 14.802C11.0813 15.2795 11.2034 15.7494 11.4384 16.1652C11.6733 16.5809 12.0128 16.928 12.4233 17.1721C12.8337 17.4161 13.3009 17.5486 13.7783 17.5564C14.2558 17.5642 14.727 17.4471 15.1452 17.2166L16.0636 18.1428C16.1372 18.217 16.2247 18.2759 16.3212 18.3161C16.4177 18.3563 16.5211 18.377 16.6257 18.377C16.7302 18.377 16.8336 18.3563 16.9301 18.3161C17.0266 18.2759 17.1141 18.217 17.1877 18.1428C17.2619 18.0692 17.3208 17.9817 17.361 17.8852C17.4012 17.7887 17.4219 17.6852 17.4219 17.5807C17.4219 17.4762 17.4012 17.3727 17.361 17.2763C17.3208 17.1798 17.2619 17.0922 17.1877 17.0186ZM14.6782 15.6332C14.452 15.8459 14.1533 15.9643 13.8429 15.9643C13.5326 15.9643 13.2338 15.8459 13.0077 15.6332C12.7898 15.4114 12.6676 15.1129 12.6673 14.802C12.6657 14.6458 12.6957 14.491 12.7556 14.3467C12.8154 14.2025 12.9039 14.0719 13.0157 13.9628C13.2267 13.7529 13.5098 13.6312 13.8073 13.6224C13.9674 13.6126 14.1277 13.6359 14.2783 13.691C14.4289 13.746 14.5665 13.8316 14.6825 13.9424C14.7985 14.0532 14.8903 14.1867 14.9522 14.3346C15.0141 14.4825 15.0448 14.6416 15.0423 14.802C15.0358 15.1163 14.9048 15.4153 14.6782 15.6332ZM10.2923 10.4557H5.54232C5.33235 10.4557 5.13099 10.5391 4.98253 10.6876C4.83406 10.8361 4.75065 11.0374 4.75065 11.2474C4.75065 11.4574 4.83406 11.6587 4.98253 11.8072C5.13099 11.9557 5.33235 12.0391 5.54232 12.0391H10.2923C10.5023 12.0391 10.7036 11.9557 10.8521 11.8072C11.0006 11.6587 11.084 11.4574 11.084 11.2474C11.084 11.0374 11.0006 10.8361 10.8521 10.6876C10.7036 10.5391 10.5023 10.4557 10.2923 10.4557ZM8.70898 15.2057C8.91895 15.2057 9.12031 15.1223 9.26878 14.9739C9.41724 14.8254 9.50065 14.624 9.50065 14.4141C9.50065 14.2041 9.41724 14.0027 9.26878 13.8543C9.12031 13.7058 8.91895 13.6224 8.70898 13.6224H5.54232C5.33235 13.6224 5.13099 13.7058 4.98253 13.8543C4.83406 14.0027 4.75065 14.2041 4.75065 14.4141C4.75065 14.624 4.83406 14.8254 4.98253 14.9739C5.13099 15.1223 5.33235 15.2057 5.54232 15.2057H8.70898Z" fill="#0E2E4A"/>
</g>
</svg>
