<svg width="78" height="77" viewBox="0 0 78 77" fill="none" xmlns="http://www.w3.org/2000/svg">
<path d="M38.9636 0C31.2471 0 23.6819 2.24046 17.3271 6.49734C10.8967 10.7542 5.90368 16.7288 2.95326 23.7489C0.00283052 30.769 -0.753696 38.5359 0.759343 46.0042C2.27238 53.4724 5.97933 60.3431 11.4263 65.7202C16.8732 71.0973 23.8332 74.7568 31.3984 76.2504C38.9636 77.744 46.8314 76.9972 53.9427 74.0846C61.054 71.172 67.1818 66.243 71.4183 59.895C75.6548 53.547 78 46.1535 78 38.5359C78 33.4576 77.0165 28.4539 75.0496 23.8236C73.0826 19.1186 70.2078 14.9364 66.5765 11.3517C62.9453 7.76693 58.6331 4.92902 53.9427 2.98728C49.1009 0.970867 44.0323 0 38.9636 0ZM38.9636 69.2303C32.7601 69.2303 26.7836 67.4379 21.6393 64.0772C16.495 60.7165 12.4854 55.8622 10.1402 50.261C7.79498 44.6599 7.18976 38.4613 8.4002 32.4867C9.61063 26.5121 12.5611 21.0603 16.9489 16.7288C21.3367 12.3972 26.8593 9.48462 32.9114 8.28971C38.9636 7.09479 45.2427 7.69225 50.9166 10.0074C56.5905 12.3225 61.5079 16.2807 64.9122 21.3591C68.3166 26.4374 70.1322 32.3373 70.1322 38.4613C70.1322 46.6016 66.8792 54.4432 60.9783 60.1937C55.1531 66.0189 47.2096 69.2303 38.9636 69.2303Z" fill="#2B8DE3"/>
<path d="M34.1509 51.5275L36.3436 33.5358C36.4948 32.0365 37.7801 30.912 39.2923 30.912C40.8044 30.912 42.0898 32.0365 42.241 33.5358L44.4336 51.5275C44.4336 51.6774 44.4336 51.8274 44.4336 52.0523C44.2824 54.826 42.0141 57 39.2166 57C36.4192 57 34.1509 54.826 33.9997 52.0523C34.0753 51.8274 34.0753 51.6774 34.1509 51.5275Z" fill="#2B8DE3"/>
<path d="M39.2927 20.1874C36.9961 20.1874 35.1343 22.0334 35.1343 24.3105C35.1343 26.5876 36.9961 28.4336 39.2927 28.4336C41.5894 28.4336 43.4512 26.5876 43.4512 24.3105C43.4512 22.0334 41.5894 20.1874 39.2927 20.1874Z" fill="#2B8DE3"/>
</svg>
