<svg width="20" height="20" viewBox="0 0 20 20" fill="none" xmlns="http://www.w3.org/2000/svg">
<path fill-rule="evenodd" clip-rule="evenodd" d="M4.90726 2.3808C6.41471 1.37355 8.18699 0.835938 9.99998 0.835938C12.4311 0.835938 14.7627 1.80171 16.4818 3.52079C18.2009 5.23988 19.1667 7.57145 19.1667 10.0026C19.1667 11.8156 18.629 13.5879 17.6218 15.0953C16.6145 16.6028 15.1829 17.7777 13.5079 18.4715C11.8329 19.1653 9.98981 19.3468 8.21166 18.9931C6.4335 18.6394 4.80015 17.7664 3.51817 16.4844C2.23619 15.2024 1.36315 13.5691 1.00945 11.7909C0.655754 10.0128 0.837285 8.16966 1.53109 6.49467C2.22489 4.81968 3.39981 3.38805 4.90726 2.3808ZM5.83321 16.2386C7.06658 17.0627 8.51662 17.5026 9.99998 17.5026C11.9891 17.5026 13.8968 16.7124 15.3033 15.3059C16.7098 13.8994 17.5 11.9917 17.5 10.0026C17.5 8.51924 17.0601 7.0692 16.236 5.83583C15.4119 4.60246 14.2406 3.64116 12.8701 3.07351C11.4997 2.50585 9.99166 2.35733 8.53681 2.64671C7.08195 2.9361 5.74558 3.65041 4.69668 4.6993C3.64779 5.7482 2.93348 7.08457 2.64409 8.53943C2.3547 9.99428 2.50323 11.5023 3.07089 12.8727C3.63854 14.2432 4.59984 15.4145 5.83321 16.2386ZM10.8333 7.5026H7.49998C7.27897 7.5026 7.067 7.5904 6.91072 7.74668C6.75444 7.90296 6.66665 8.11492 6.66665 8.33594C6.66665 8.55695 6.75444 8.76891 6.91072 8.92519C7.067 9.08147 7.27897 9.16927 7.49998 9.16927H9.16665C9.82969 9.16927 10.4656 9.43266 10.9344 9.9015C11.4033 10.3703 11.6666 11.0062 11.6666 11.6693C11.6666 12.3323 11.4033 12.9682 10.9344 13.437C10.4656 13.9059 9.82969 14.1693 9.16665 14.1693H7.49998H5.83331C5.6123 14.1693 5.40034 14.0815 5.24406 13.9252C5.08778 13.7689 4.99998 13.557 4.99998 13.3359C4.99998 13.1149 5.08778 12.903 5.24406 12.7467C5.40034 12.5904 5.6123 12.5026 5.83331 12.5026H9.16665C9.38766 12.5026 9.59962 12.4148 9.7559 12.2585C9.91218 12.1022 9.99998 11.8903 9.99998 11.6693C9.99998 11.4483 9.91218 11.2363 9.7559 11.08C9.59962 10.9237 9.38766 10.8359 9.16665 10.8359H7.49998C6.83694 10.8359 6.20105 10.5725 5.73221 10.1037C5.26337 9.63486 4.99998 8.99898 4.99998 8.33594C4.99998 7.6729 5.26337 7.03701 5.73221 6.56817C6.20105 6.09933 6.83694 5.83594 7.49998 5.83594H9.16665H10.8333C11.0543 5.83594 11.2663 5.92374 11.4226 6.08002C11.5788 6.2363 11.6666 6.44826 11.6666 6.66927C11.6666 6.89028 11.5788 7.10225 11.4226 7.25853C11.2663 7.41481 11.0543 7.5026 10.8333 7.5026ZM14.9959 5.91892C15.0417 5.46097 14.7076 5.0526 14.2496 5.0068C13.7917 4.96101 13.3833 5.29513 13.3375 5.75308L12.5042 14.0864C12.4584 14.5444 12.7925 14.9527 13.2505 14.9985C13.7084 15.0443 14.1168 14.7102 14.1626 14.2523L14.9959 5.91892Z" fill="#0E2E4A"/>
</svg>
