<svg width="20" height="22" viewBox="0 0 20 22" fill="none" xmlns="http://www.w3.org/2000/svg">
<path d="M19.0282 15.3031C18.4938 14.3844 17.8563 12.6312 17.8563 9.5V8.83437C17.8563 4.475 14.3595 0.903125 10.0563 0.875H10.0001C8.9668 0.874997 7.94367 1.07882 6.98928 1.47481C6.0349 1.8708 5.168 2.45116 4.43823 3.18267C3.70847 3.91417 3.13017 4.78246 2.73646 5.73778C2.34275 6.69311 2.14136 7.71673 2.14383 8.75V9.5C2.14383 12.6312 1.50633 14.3844 0.971954 15.3031C0.808143 15.5887 0.722021 15.9123 0.722168 16.2415C0.722315 16.5708 0.808725 16.8942 0.972791 17.1797C1.13686 17.4651 1.37285 17.7026 1.65727 17.8685C1.94168 18.0343 2.26459 18.1228 2.59383 18.125H5.89383C5.99154 19.1463 6.46638 20.0946 7.22563 20.7847C7.98489 21.4748 8.97407 21.8571 10.0001 21.8571C11.0261 21.8571 12.0153 21.4748 12.7745 20.7847C13.5338 20.0946 14.0086 19.1463 14.1063 18.125H17.4063C17.7356 18.1228 18.0585 18.0343 18.3429 17.8685C18.6273 17.7026 18.8633 17.4651 19.0274 17.1797C19.1914 16.8942 19.2778 16.5708 19.278 16.2415C19.2781 15.9123 19.192 15.5887 19.0282 15.3031ZM10.0001 19.625C9.5683 19.6233 9.15019 19.4734 8.8157 19.2004C8.48122 18.9273 8.25065 18.5477 8.16258 18.125H11.8376C11.7495 18.5477 11.5189 18.9273 11.1845 19.2004C10.85 19.4734 10.4319 19.6233 10.0001 19.625ZM3.21258 15.875C4.1782 13.85 4.39383 11.3281 4.39383 9.5V8.75C4.39012 8.01185 4.53246 7.28027 4.81265 6.59736C5.09285 5.91445 5.50536 5.29372 6.02644 4.77089C6.54752 4.24807 7.16688 3.83348 7.84885 3.55101C8.53082 3.26854 9.26193 3.12375 10.0001 3.125H10.047C13.1126 3.14375 15.6063 5.70312 15.6063 8.83437V9.5C15.6063 11.3281 15.822 13.85 16.7876 15.875H3.21258Z" fill="#333333"/>
</svg>
