<svg width="21" height="21" viewBox="0 0 21 21" fill="none" xmlns="http://www.w3.org/2000/svg">
<path fill-rule="evenodd" clip-rule="evenodd" d="M10.6678 8.20708C10.4803 8.01955 10.375 7.76525 10.375 7.50008C10.375 7.23492 10.4803 6.98061 10.6678 6.79308L13.6678 3.79308C13.76 3.69757 13.8704 3.62139 13.9924 3.56898C14.1144 3.51657 14.2456 3.48898 14.3784 3.48783C14.5112 3.48668 14.6428 3.51198 14.7657 3.56226C14.8886 3.61254 15.0003 3.68679 15.0942 3.78069C15.1881 3.87458 15.2623 3.98623 15.3126 4.10913C15.3629 4.23202 15.3882 4.3637 15.387 4.49648C15.3859 4.62926 15.3583 4.76048 15.3059 4.88249C15.2535 5.00449 15.1773 5.11483 15.0818 5.20708L12.0818 8.20708C11.8943 8.39455 11.64 8.49987 11.3748 8.49987C11.1096 8.49987 10.8553 8.39455 10.6678 8.20708Z" fill="black"/>
<path fill-rule="evenodd" clip-rule="evenodd" d="M18.0814 8.20692C17.8939 8.39439 17.6396 8.49971 17.3744 8.49971C17.1093 8.49971 16.855 8.39439 16.6674 8.20692L13.6674 5.20692C13.4853 5.01832 13.3845 4.76571 13.3868 4.50352C13.389 4.24132 13.4942 3.99051 13.6796 3.8051C13.865 3.61969 14.1158 3.51452 14.378 3.51224C14.6402 3.50997 14.8928 3.61076 15.0814 3.79292L18.0814 6.79292C18.2689 6.98045 18.3742 7.23475 18.3742 7.49992C18.3742 7.76508 18.2689 8.01939 18.0814 8.20692Z" fill="black"/>
<path fill-rule="evenodd" clip-rule="evenodd" d="M14.3744 5.5C14.6396 5.5 14.894 5.60536 15.0815 5.79289C15.2691 5.98043 15.3744 6.23478 15.3744 6.5V14.5C15.3744 14.7652 15.2691 15.0196 15.0815 15.2071C14.894 15.3946 14.6396 15.5 14.3744 15.5C14.1092 15.5 13.8549 15.3946 13.6673 15.2071C13.4798 15.0196 13.3744 14.7652 13.3744 14.5V6.5C13.3744 6.23478 13.4798 5.98043 13.6673 5.79289C13.8549 5.60536 14.1092 5.5 14.3744 5.5ZM10.0814 12.793C10.2689 12.9805 10.3742 13.2348 10.3742 13.5C10.3742 13.7652 10.2689 14.0195 10.0814 14.207L7.08143 17.207C6.89283 17.3892 6.64023 17.49 6.37803 17.4877C6.11583 17.4854 5.86502 17.3802 5.67961 17.1948C5.4942 17.0094 5.38903 16.7586 5.38676 16.4964C5.38448 16.2342 5.48527 15.9816 5.66743 15.793L8.66743 12.793C8.85496 12.6055 9.10927 12.5002 9.37443 12.5002C9.6396 12.5002 9.8939 12.6055 10.0814 12.793Z" fill="black"/>
<path fill-rule="evenodd" clip-rule="evenodd" d="M2.66779 12.7933C2.85531 12.6058 3.10962 12.5005 3.37479 12.5005C3.63995 12.5005 3.89426 12.6058 4.08179 12.7933L7.08179 15.7933C7.1773 15.8855 7.25348 15.9959 7.30589 16.1179C7.3583 16.2399 7.38588 16.3711 7.38704 16.5039C7.38819 16.6367 7.36289 16.7683 7.31261 16.8912C7.26233 17.0141 7.18807 17.1258 7.09418 17.2197C7.00029 17.3136 6.88864 17.3878 6.76574 17.4381C6.64284 17.4884 6.51116 17.5137 6.37839 17.5125C6.24561 17.5114 6.11439 17.4838 5.99238 17.4314C5.87038 17.379 5.76003 17.3028 5.66779 17.2073L2.66779 14.2073C2.48032 14.0197 2.375 13.7654 2.375 13.5003C2.375 13.2351 2.48032 12.9808 2.66779 12.7933Z" fill="black"/>
<path fill-rule="evenodd" clip-rule="evenodd" d="M6.375 15.5C6.10978 15.5 5.85543 15.3946 5.66789 15.2071C5.48036 15.0196 5.375 14.7652 5.375 14.5V6.5C5.375 6.23478 5.48036 5.98043 5.66789 5.79289C5.85543 5.60536 6.10978 5.5 6.375 5.5C6.64022 5.5 6.89457 5.60536 7.08211 5.79289C7.26964 5.98043 7.375 6.23478 7.375 6.5V14.5C7.375 14.7652 7.26964 15.0196 7.08211 15.2071C6.89457 15.3946 6.64022 15.5 6.375 15.5Z" fill="black"/>
</svg>
