<?xml version="1.0" standalone="no"?>
<!DOCTYPE svg PUBLIC "-//W3C//DTD SVG 20010904//EN"
 "http://www.w3.org/TR/2001/REC-SVG-20010904/DTD/svg10.dtd">
<svg version="1.0" xmlns="http://www.w3.org/2000/svg"
 width="512.000000pt" height="512.000000pt" viewBox="0 0 512.000000 512.000000"
 preserveAspectRatio="xMidYMid meet">

<g transform="translate(0.000000,512.000000) scale(0.100000,-0.100000)"
fill="#000000" stroke="none">
<path d="M1464 5105 c-190 -41 -337 -178 -402 -375 -12 -35 -16 -115 -20 -352
l-4 -308 -519 0 -519 0 0 -1640 0 -1640 524 0 524 0 4 -152 c5 -175 21 -240
85 -345 68 -111 154 -186 261 -227 l57 -21 1590 3 c1138 1 1604 5 1640 13 134
31 278 141 342 265 66 125 63 33 63 1724 l0 1535 -662 768 -662 767 -1120 -1
c-889 0 -1134 -3 -1182 -14z m2086 -818 c0 -299 4 -495 11 -533 6 -32 26 -92
45 -133 59 -129 151 -223 279 -287 118 -58 167 -64 562 -64 l351 0 -5 -337
c-3 -186 -10 -777 -17 -1313 l-12 -975 -26 -56 c-32 -69 -85 -124 -152 -155
l-51 -24 -1471 0 -1472 0 -53 28 c-96 50 -153 148 -166 284 l-6 68 1032 0
1031 0 0 1640 0 1640 -1031 0 -1030 0 3 233 c3 217 4 235 26 278 39 80 124
149 207 170 17 4 461 7 988 8 l957 1 0 -473z m-440 -1852 l0 -1315 -1390 0
-1390 0 0 1315 0 1315 1390 0 1390 0 0 -1315z"/>
<path d="M1616 3645 c-21 -7 -54 -28 -72 -46 -51 -49 -66 -104 -71 -259 -6
-158 14 -273 76 -457 l38 -113 -38 -102 c-47 -127 -198 -430 -279 -559 l-59
-96 -83 -33 c-250 -99 -461 -239 -537 -358 -35 -55 -56 -138 -47 -187 9 -48
49 -92 88 -97 45 -7 127 14 182 46 116 68 270 231 405 428 l66 97 120 40 c66
22 165 51 221 65 114 29 373 76 418 76 24 0 53 -24 165 -133 141 -138 282
-241 391 -287 104 -43 235 -27 303 38 45 42 60 81 61 147 0 225 -276 366 -717
367 l-127 0 -47 52 c-107 119 -247 312 -317 439 l-38 68 31 107 c43 148 77
321 97 493 17 141 17 146 -2 185 -14 29 -32 46 -73 67 -60 30 -97 33 -155 12z
m104 -123 l22 -17 -17 -130 c-14 -114 -54 -322 -72 -380 -5 -18 -6 -18 -15 5
-41 110 -60 341 -37 449 17 79 71 112 119 73z m23 -1017 c36 -55 102 -145 146
-200 73 -90 79 -100 58 -103 -87 -13 -343 -67 -432 -92 -59 -17 -110 -29 -112
-26 -3 2 13 35 35 73 70 120 169 326 214 442 10 29 7 32 91 -94z m727 -420
c176 -26 289 -74 342 -146 98 -131 -33 -223 -200 -141 -34 17 -92 52 -129 79
-65 47 -243 209 -243 222 0 10 119 3 230 -14z m-1400 -271 c0 -4 -26 -39 -57
-78 -121 -150 -249 -258 -322 -272 -33 -7 -34 -7 -27 22 24 95 131 194 321
296 71 38 85 43 85 32z"/>
</g>
</svg>
