<svg version="1.0" xmlns="http://www.w3.org/2000/svg"
 width="182.000000pt" height="178.000000pt" viewBox="0 0 182.000000 178.000000"
 preserveAspectRatio="xMidYMid meet">

<g transform="translate(0.000000,178.000000) scale(0.100000,-0.100000)"
fill="#000000" stroke="none">
<path d="M499 1677 c-57 -38 -79 -95 -79 -209 l0 -98 -160 0 -160 0 0 -510 0
-510 159 0 158 0 6 -60 c6 -73 33 -128 77 -157 l33 -23 527 0 527 0 33 22 c18
13 43 36 54 51 21 28 21 39 24 532 l3 503 -208 241 -207 241 -377 0 c-374 0
-376 0 -410 -23z m721 -246 c0 -170 6 -200 48 -244 49 -52 77 -61 215 -65
l127 -4 0 -223 c0 -122 -3 -311 -7 -420 -6 -198 -6 -198 -34 -229 l-27 -31
-456 -3 c-250 -1 -470 1 -488 6 -40 10 -80 65 -76 102 l3 25 323 3 322 2 0
510 0 510 -325 0 -325 0 0 81 c0 76 2 82 29 110 l29 29 321 0 321 0 0 -159z
m-142 -573 l2 -418 -445 0 -445 0 0 420 0 420 443 -2 442 -3 3 -417z"/>
<path d="M594 1232 c-37 -24 -44 -103 -18 -192 9 -30 16 -66 16 -80 0 -13 -24
-71 -52 -128 l-53 -103 -74 -35 c-95 -45 -145 -94 -141 -137 2 -24 8 -33 25
-35 37 -5 80 25 140 101 32 39 62 75 68 79 8 6 139 39 212 54 17 3 38 -10 82
-50 70 -64 108 -86 151 -86 49 0 70 16 70 53 0 64 -68 103 -197 114 -70 6 -74
7 -106 47 -19 23 -46 60 -61 84 l-27 44 20 88 c24 99 27 160 9 178 -13 13 -47
16 -64 4z m49 -29 c7 -12 -11 -124 -25 -153 l-11 -25 -8 25 c-9 31 -11 123 -3
144 6 16 39 22 47 9z m16 -338 c63 -83 64 -79 -36 -103 -48 -11 -89 -19 -91
-18 -3 3 79 176 83 176 1 0 21 -25 44 -55z m240 -116 c52 -11 101 -47 101 -74
0 -8 -11 -21 -25 -27 -21 -9 -32 -8 -60 5 -37 18 -115 84 -115 98 0 12 38 11
99 -2z m-469 -90 c0 -21 -96 -109 -118 -109 -36 0 -12 40 48 83 56 39 70 44
70 26z"/>
</g>
</svg>
