<svg width="44" height="58" viewBox="0 0 44 58" fill="none" xmlns="http://www.w3.org/2000/svg">
<path fill-rule="evenodd" clip-rule="evenodd" d="M6.00544 0.0577727C1.15372 1.05107 -0.0195736 4.88629 0.00024551 6.67974L0.000245524 51.6737C0.475904 55.6468 4.1028 57.527 6.00544 58H37.8746C41.6799 57.6216 43.5429 53.5854 43.9987 51.6145C43.9789 42.5882 43.9511 23.5066 43.9987 19.3916C44.0463 15.2765 42.7897 13.3411 42.1555 12.8878C39.7772 10.3849 34.4142 4.78775 31.9883 2.42276C29.5624 0.0577729 27.3308 -0.13931 26.5182 0.0577727H6.00544ZM6.66871 6C5.2868 6.04606 4.98103 7.2473 5.00089 7.84217L5.06047 50.3847C5.06047 51.7663 6.72829 52.035 7.5622 51.9966H36.3917C37.3448 51.9505 37.861 50.9028 38 50.3847V18.4346H28.1718C26.1227 18.3886 25.1339 16.8227 25.1339 15.0957V6H6.66871ZM29.5319 34.6978C29.405 34.6831 29.2805 34.6758 29.1584 34.6758H28.719V34.3682C28.719 34.2803 28.7214 34.1924 28.7263 34.1045C28.7312 34.0166 28.7434 33.936 28.7629 33.8628C28.7873 33.7896 28.8166 33.731 28.8508 33.687C28.8899 33.6431 28.9436 33.6211 29.0119 33.6211C29.0949 33.6211 29.1682 33.6382 29.2316 33.6724C29.2951 33.7065 29.3635 33.7236 29.4367 33.7236C29.5246 33.7236 29.6198 33.709 29.7224 33.6797C29.8298 33.6504 29.9274 33.5991 30.0153 33.5259C30.1032 33.4526 30.1765 33.3574 30.2351 33.2402C30.2985 33.123 30.3303 32.9766 30.3303 32.8008C30.3303 32.6104 30.2863 32.4492 30.1984 32.3174C30.1154 32.1807 30.0007 32.0708 29.8542 31.9878C29.7077 31.9048 29.5368 31.8438 29.3415 31.8047C29.1462 31.7656 28.9387 31.7461 28.719 31.7461C28.2014 31.7461 27.7937 31.8193 27.4958 31.9658C27.198 32.1074 26.9733 32.3076 26.822 32.5664C26.6706 32.8203 26.5754 33.1279 26.5363 33.4893C26.4973 33.8506 26.4777 34.2461 26.4777 34.6758H26.0676C25.9309 34.6758 25.799 34.6831 25.6721 34.6978C25.55 34.7124 25.4401 34.749 25.3425 34.8076C25.2497 34.8662 25.174 34.9565 25.1154 35.0786C25.0568 35.2007 25.0275 35.3691 25.0275 35.584C25.0275 35.7842 25.0568 35.9429 25.1154 36.0601C25.174 36.1724 25.2497 36.2603 25.3425 36.3237C25.4401 36.3823 25.55 36.4214 25.6721 36.4409C25.799 36.4556 25.9309 36.4629 26.0676 36.4629H26.4777V40.3447C26.4777 40.5596 26.4875 40.7671 26.507 40.9673C26.5266 41.1626 26.573 41.3384 26.6462 41.4946C26.7194 41.646 26.8269 41.7681 26.9685 41.8608C27.1149 41.9536 27.3127 42 27.5617 42C27.8205 42 28.0256 41.9536 28.177 41.8608C28.3332 41.7681 28.4504 41.646 28.5285 41.4946C28.6115 41.3384 28.6628 41.1626 28.6823 40.9673C28.7067 40.7671 28.719 40.5596 28.719 40.3447V36.4629H29.1584C29.2805 36.4629 29.405 36.4556 29.5319 36.4409C29.6589 36.4214 29.7712 36.3823 29.8689 36.3237C29.9714 36.2603 30.0544 36.1724 30.1179 36.0601C30.1814 35.9429 30.2131 35.7842 30.2131 35.584C30.2131 35.3691 30.1814 35.2007 30.1179 35.0786C30.0544 34.9565 29.9714 34.8662 29.8689 34.8076C29.7712 34.749 29.6589 34.7124 29.5319 34.6978ZM24.0719 40.3447C24.0719 40.5498 24.0646 40.7524 24.0499 40.9526C24.0353 41.148 23.9913 41.3237 23.9181 41.48C23.8448 41.6362 23.735 41.7632 23.5885 41.8608C23.442 41.9536 23.2369 42 22.9732 42C22.7047 42 22.4947 41.9561 22.3434 41.8682C22.192 41.7754 22.0797 41.6655 22.0064 41.5386C21.9332 41.4067 21.8868 41.27 21.8673 41.1284C21.8526 40.9868 21.8453 40.8672 21.8453 40.7695C21.8014 40.9111 21.7379 41.0552 21.6549 41.2017C21.5768 41.3481 21.4742 41.48 21.3473 41.5972C21.2203 41.7144 21.0665 41.812 20.8858 41.8901C20.7101 41.9634 20.5025 42 20.2633 42C19.9947 42 19.7262 41.9561 19.4576 41.8682C19.1891 41.7803 18.9474 41.6338 18.7325 41.4287C18.5177 41.2236 18.3419 40.9575 18.2052 40.6304C18.0733 40.2983 18.0074 39.8906 18.0074 39.4072V37.2832C18.0074 36.7949 18.0733 36.3872 18.2052 36.0601C18.3419 35.728 18.5177 35.4619 18.7325 35.2617C18.9474 35.0566 19.1891 34.9102 19.4576 34.8223C19.7262 34.7344 19.9947 34.6904 20.2633 34.6904C20.5025 34.6904 20.7101 34.7271 20.8858 34.8003C21.0665 34.8735 21.2203 34.9688 21.3473 35.0859C21.4742 35.2031 21.5768 35.335 21.6549 35.4814C21.7379 35.6279 21.8014 35.7744 21.8453 35.9209V33.416C21.8453 33.2061 21.8551 33.001 21.8746 32.8008C21.899 32.5957 21.9479 32.4175 22.0211 32.2661C22.0992 32.1099 22.2115 31.9854 22.358 31.8926C22.5094 31.7949 22.7145 31.7461 22.9732 31.7461C23.2174 31.7461 23.4127 31.7949 23.5592 31.8926C23.7057 31.9854 23.8155 32.1099 23.8888 32.2661C23.9669 32.4175 24.0157 32.5957 24.0353 32.8008C24.0597 33.001 24.0719 33.2061 24.0719 33.416V40.3447ZM20.2633 39.2168C20.2633 39.3486 20.2682 39.478 20.2779 39.605C20.2877 39.7319 20.3146 39.8467 20.3585 39.9492C20.4024 40.0518 20.4659 40.1348 20.5489 40.1982C20.6368 40.2568 20.7564 40.2861 20.9078 40.2861C21.0982 40.2861 21.2521 40.2446 21.3692 40.1616C21.4913 40.0737 21.5865 39.9419 21.6549 39.7661C21.7232 39.5855 21.7696 39.3608 21.794 39.0923C21.8233 38.8188 21.8404 38.4941 21.8453 38.1182C21.8453 37.9668 21.8307 37.7935 21.8014 37.5981C21.777 37.3979 21.7306 37.21 21.6622 37.0342C21.5939 36.8584 21.4986 36.7095 21.3766 36.5874C21.2545 36.4653 21.0982 36.4043 20.9078 36.4043C20.7564 36.4043 20.6368 36.436 20.5489 36.4995C20.4659 36.5581 20.4024 36.6362 20.3585 36.7339C20.3146 36.8315 20.2877 36.9438 20.2779 37.0708C20.2682 37.1929 20.2633 37.3174 20.2633 37.4443V39.2168ZM10.4673 35.7305C10.4526 35.9258 10.4453 36.126 10.4453 36.3311V43.2598C10.4453 43.4746 10.4551 43.6821 10.4746 43.8823C10.499 44.0825 10.5479 44.2583 10.6211 44.4097C10.6992 44.5659 10.8115 44.6904 10.958 44.7832C11.1045 44.8809 11.2998 44.9297 11.5439 44.9297C11.7979 44.9297 12.0005 44.8809 12.1519 44.7832C12.3032 44.6904 12.4155 44.5659 12.4888 44.4097C12.5669 44.2583 12.6157 44.0825 12.6353 43.8823C12.6597 43.6821 12.6719 43.4746 12.6719 43.2598V40.7549C12.7158 40.9014 12.7769 41.0479 12.855 41.1943C12.938 41.3408 13.043 41.4727 13.1699 41.5898C13.2969 41.707 13.4482 41.8022 13.624 41.8755C13.8047 41.9487 14.0147 41.9854 14.2539 41.9854C14.5225 41.9854 14.791 41.9414 15.0596 41.8535C15.3281 41.7656 15.5698 41.6216 15.7847 41.4214C15.9995 41.2163 16.1729 40.9502 16.3047 40.623C16.4414 40.291 16.5098 39.8809 16.5098 39.3926V37.2686C16.5098 36.7852 16.4414 36.3799 16.3047 36.0527C16.1729 35.7207 15.9995 35.4521 15.7847 35.2471C15.5698 35.042 15.3281 34.8955 15.0596 34.8076C14.791 34.7197 14.5225 34.6758 14.2539 34.6758C14.0147 34.6758 13.8047 34.7148 13.624 34.793C13.4482 34.8662 13.2969 34.9614 13.1699 35.0786C13.043 35.1958 12.938 35.3276 12.855 35.4741C12.7769 35.6206 12.7158 35.7646 12.6719 35.9063C12.6719 35.8086 12.6621 35.689 12.6426 35.5474C12.6279 35.4058 12.584 35.2715 12.5107 35.1445C12.4375 35.0127 12.3252 34.9028 12.1738 34.8149C12.0225 34.7222 11.8125 34.6758 11.5439 34.6758C11.2803 34.6758 11.0752 34.7246 10.9287 34.8223C10.7822 34.915 10.6724 35.0396 10.5991 35.1958C10.5259 35.3521 10.4819 35.5303 10.4673 35.7305ZM14.2393 37.0708C14.249 37.1978 14.2539 37.3271 14.2539 37.459V39.2314C14.2539 39.3584 14.249 39.4854 14.2393 39.6123C14.2295 39.7344 14.2026 39.8442 14.1587 39.9419C14.1147 40.0396 14.0488 40.1201 13.9609 40.1836C13.8779 40.2422 13.7607 40.2715 13.6094 40.2715C13.4189 40.2715 13.2627 40.2129 13.1406 40.0957C13.0186 39.9736 12.9233 39.8247 12.855 39.6489C12.7866 39.4731 12.7378 39.2876 12.7085 39.0923C12.6841 38.8921 12.6719 38.7139 12.6719 38.5576C12.6768 38.1865 12.6914 37.8643 12.7158 37.5908C12.7451 37.3174 12.7939 37.0928 12.8623 36.917C12.9307 36.7363 13.0234 36.6045 13.1406 36.5215C13.2627 36.4336 13.4189 36.3896 13.6094 36.3896C13.7607 36.3896 13.8779 36.4214 13.9609 36.4849C14.0488 36.5435 14.1147 36.624 14.1587 36.7266C14.2026 36.8291 14.2295 36.9438 14.2393 37.0708Z" fill="#EA4C3A"/>
</svg>
