<svg width="15" height="18" viewBox="0 0 15 18" fill="none" xmlns="http://www.w3.org/2000/svg">
<path d="M7.16667 15.6665H3C2.77899 15.6665 2.56702 15.5787 2.41074 15.4224C2.25446 15.2661 2.16667 15.0542 2.16667 14.8332V3.1665C2.16667 2.94549 2.25446 2.73353 2.41074 2.57725C2.56702 2.42097 2.77899 2.33317 3 2.33317H7.16667V4.83317C7.16667 5.49621 7.43006 6.1321 7.8989 6.60094C8.36774 7.06978 9.00362 7.33317 9.66667 7.33317H12.1667V8.99984C12.1667 9.22085 12.2545 9.43281 12.4107 9.58909C12.567 9.74537 12.779 9.83317 13 9.83317C13.221 9.83317 13.433 9.74537 13.5893 9.58909C13.7455 9.43281 13.8333 9.22085 13.8333 8.99984V6.44984C13.8247 6.37328 13.8079 6.29786 13.7833 6.22484V6.14984C13.7414 6.06267 13.6882 5.98141 13.625 5.90817L8.625 0.908171C8.55176 0.844997 8.4705 0.79176 8.38333 0.749837C8.35846 0.746304 8.33321 0.746304 8.30833 0.749837L8.05 0.666504H3C2.33696 0.666504 1.70107 0.929896 1.23223 1.39874C0.763392 1.86758 0.5 2.50346 0.5 3.1665V14.8332C0.5 15.4962 0.763392 16.1321 1.23223 16.6009C1.70107 17.0698 2.33696 17.3332 3 17.3332H7.16667C7.38768 17.3332 7.59964 17.2454 7.75592 17.0891C7.9122 16.9328 8 16.7209 8 16.4998C8 16.2788 7.9122 16.0669 7.75592 15.9106C7.59964 15.7543 7.38768 15.6665 7.16667 15.6665ZM8.83333 3.50817L10.9917 5.6665H9.66667C9.44565 5.6665 9.23369 5.57871 9.07741 5.42243C8.92113 5.26615 8.83333 5.05418 8.83333 4.83317V3.50817Z" fill="#0E2E4A"/>
<path d="M12.4142 14.2472L12.6558 13.9972C12.8127 13.8403 13.0256 13.7522 13.2475 13.7522C13.4694 13.7522 13.6822 13.8403 13.8392 13.9972C13.9961 14.1542 14.0842 14.367 14.0842 14.5889C14.0842 14.8108 13.9961 15.0236 13.8392 15.1806L12.1725 16.8472C12.0932 16.9231 11.9998 16.9826 11.8975 17.0222C11.7977 17.0663 11.6899 17.0891 11.5808 17.0891C11.4718 17.0891 11.3639 17.0663 11.2642 17.0222C11.1619 16.9826 11.0684 16.9231 10.9892 16.8472L9.32249 15.1806C9.16557 15.0236 9.07741 14.8108 9.07741 14.5889C9.07741 14.367 9.16557 14.1542 9.32249 13.9972C9.47941 13.8403 9.69224 13.7522 9.91415 13.7522C10.1361 13.7522 10.3489 13.8403 10.5058 13.9972L10.7475 14.2472V12.0889C10.7475 11.8679 10.8353 11.6559 10.9916 11.4996C11.1478 11.3434 11.3598 11.2556 11.5808 11.2556C11.8018 11.2556 12.0138 11.3434 12.1701 11.4996C12.3264 11.6559 12.4142 11.8679 12.4142 12.0889V14.2472Z" fill="#0E2E4A"/>
</svg>
