<svg width="24" height="24" viewBox="0 0 24 24" fill="none" xmlns="http://www.w3.org/2000/svg">
<g id="uil:plus-square">
<g id="Vector">
<path d="M8.70711 12.5H10.7071V14.5C10.7071 14.7652 10.8125 15.0196 11 15.2071C11.1875 15.3946 11.4419 15.5 11.7071 15.5C11.9723 15.5 12.2267 15.3946 12.4142 15.2071C12.6017 15.0196 12.7071 14.7652 12.7071 14.5V12.5H14.7071C14.9723 12.5 15.2267 12.3946 15.4142 12.2071C15.6017 12.0196 15.7071 11.7652 15.7071 11.5C15.7071 11.2348 15.6017 10.9804 15.4142 10.7929C15.2267 10.6054 14.9723 10.5 14.7071 10.5H12.7071V8.5C12.7071 8.23478 12.6017 7.98043 12.4142 7.79289C12.2267 7.60536 11.9723 7.5 11.7071 7.5C11.4419 7.5 11.1875 7.60536 11 7.79289C10.8125 7.98043 10.7071 8.23478 10.7071 8.5V10.5H8.70711C8.44189 10.5 8.18754 10.6054 8 10.7929C7.81246 10.9804 7.70711 11.2348 7.70711 11.5C7.70711 11.7652 7.81246 12.0196 8 12.2071C8.18754 12.3946 8.44189 12.5 8.70711 12.5Z" fill="#0E2E4A"/>
<path fill-rule="evenodd" clip-rule="evenodd" d="M21 2H3C2.73478 2 2.48043 2.10536 2.29289 2.29289C2.10536 2.48043 2 2.73478 2 3V21C2 21.2652 2.10536 21.5196 2.29289 21.7071C2.48043 21.8946 2.73478 22 3 22H15.5858C15.851 22 16.1054 21.8946 16.2929 21.7071L21.7071 16.2929C21.8946 16.1054 22 15.851 22 15.5858V3C22 2.73478 21.8946 2.48043 21.7071 2.29289C21.5196 2.10536 21.2652 2 21 2ZM4 4V20H14V15C14 14.4477 14.4477 14 15 14H20V4H4ZM16 19V16H19L16 19Z" fill="#0E2E4A"/>
</g>
</g>
</svg>
