<svg width="77" height="77" viewBox="0 0 77 77" fill="none" xmlns="http://www.w3.org/2000/svg">
<path d="M35.7665 51.1665C35.6009 51.3494 35.4467 51.5423 35.3045 51.744C35.1588 51.9586 35.0423 52.1916 34.958 52.437C34.847 52.6552 34.7692 52.8888 34.727 53.13C34.7081 53.3863 34.7081 53.6437 34.727 53.9C34.714 54.405 34.8195 54.9061 35.035 55.363C35.2079 55.8408 35.4838 56.2747 35.8431 56.6339C36.2023 56.9932 36.6362 57.2691 37.114 57.442C37.5749 57.6457 38.0732 57.7509 38.577 57.7509C39.0809 57.7509 39.5792 57.6457 40.04 57.442C40.5178 57.2691 40.9517 56.9932 41.311 56.6339C41.6702 56.2747 41.9461 55.8408 42.119 55.363C42.29 54.8949 42.3684 54.398 42.35 53.9C42.3529 53.3933 42.2558 52.891 42.0642 52.4219C41.8726 51.9529 41.5903 51.5262 41.2335 51.1665C40.8756 50.8056 40.4498 50.5192 39.9806 50.3238C39.5115 50.1283 39.0083 50.0277 38.5 50.0277C37.9918 50.0277 37.4885 50.1283 37.0194 50.3238C36.5502 50.5192 36.1244 50.8056 35.7665 51.1665ZM38.5 0C30.8854 0 23.4419 2.25799 17.1106 6.48842C10.7793 10.7189 5.84463 16.7317 2.93065 23.7667C0.0166814 30.8016 -0.745747 38.5427 0.739784 46.011C2.22531 53.4792 5.89208 60.3393 11.2764 65.7236C16.6607 71.1079 23.5208 74.7747 30.989 76.2602C38.4573 77.7457 46.1984 76.9833 53.2333 74.0693C60.2683 71.1554 66.2811 66.2207 70.5116 59.8894C74.742 53.5581 77 46.1146 77 38.5C77 33.4441 76.0042 28.4377 74.0694 23.7667C72.1346 19.0956 69.2987 14.8514 65.7236 11.2764C62.1486 7.70133 57.9044 4.86544 53.2333 2.93064C48.5623 0.995832 43.5559 0 38.5 0ZM38.5 69.3C32.4083 69.3 26.4535 67.4936 21.3884 64.1092C16.3234 60.7249 12.3757 55.9146 10.0445 50.2866C7.71335 44.6587 7.10341 38.4658 8.29183 32.4912C9.48025 26.5166 12.4137 21.0286 16.7211 16.7211C21.0286 12.4137 26.5166 9.48024 32.4912 8.29181C38.4658 7.10339 44.6587 7.71333 50.2867 10.0445C55.9146 12.3757 60.7249 16.3234 64.1093 21.3884C67.4936 26.4535 69.3 32.4083 69.3 38.5C69.3 46.6687 66.055 54.5028 60.2789 60.2789C54.5028 66.055 46.6687 69.3 38.5 69.3ZM38.5 19.25C36.4713 19.2487 34.478 19.7818 32.7208 20.7955C30.9636 21.8093 29.5044 23.2681 28.49 25.025C28.2114 25.4632 28.0244 25.9532 27.9401 26.4656C27.8559 26.9779 27.8761 27.502 27.9996 28.0064C28.1232 28.5107 28.3474 28.9849 28.659 29.4003C28.9705 29.8157 29.3628 30.1638 29.8124 30.4236C30.2619 30.6835 30.7594 30.8497 31.2748 30.9123C31.7903 30.9749 32.3131 30.9326 32.8118 30.788C33.3105 30.6433 33.7747 30.3992 34.1766 30.0705C34.5786 29.7417 34.9098 29.3351 35.1505 28.875C35.4897 28.2875 35.9781 27.8 36.5663 27.462C37.1545 27.1239 37.8216 26.9473 38.5 26.95C39.5211 26.95 40.5004 27.3556 41.2224 28.0776C41.9444 28.7996 42.35 29.7789 42.35 30.8C42.35 31.8211 41.9444 32.8003 41.2224 33.5224C40.5004 34.2444 39.5211 34.65 38.5 34.65C37.4789 34.65 36.4997 35.0556 35.7776 35.7776C35.0556 36.4996 34.65 37.4789 34.65 38.5V42.35C34.65 43.3711 35.0556 44.3503 35.7776 45.0723C36.4997 45.7944 37.4789 46.2 38.5 46.2C39.5211 46.2 40.5004 45.7944 41.2224 45.0723C41.9444 44.3503 42.35 43.3711 42.35 42.35V41.657C44.8963 40.7331 47.0368 38.9436 48.3975 36.6014C49.7581 34.2593 50.2523 31.5134 49.7936 28.8438C49.3349 26.1742 47.9525 23.7507 45.8881 21.997C43.8237 20.2433 41.2086 19.271 38.5 19.25Z" fill="#0E2E4A"/>
</svg>
