<svg width="26" height="24" viewBox="0 0 26 24" fill="none" xmlns="http://www.w3.org/2000/svg">
<path d="M16.8203 2V7H22.0316" stroke="#963CBE" stroke-width="2" stroke-linecap="round" stroke-linejoin="round"/>
<path d="M22.0241 6V12.5C22.0241 13.3 21.2945 14 20.4607 14H13.1649C12.3311 14 11.6016 13.3 11.6016 12.5V3.5C11.6016 2.7 12.3311 2 13.1649 2H17.8551L22.0241 6Z" stroke="#963CBE" stroke-width="2" stroke-linecap="round" stroke-linejoin="round"/>
<path d="M7.4375 8V16.8C7.4375 17.1 7.64595 17.4 7.8544 17.6C8.06285 17.8 8.37553 18 8.6882 18H15.7755" stroke="#963CBE" stroke-width="2" stroke-linecap="round" stroke-linejoin="round"/>
<path d="M3.26562 12V20.8C3.26562 21.1 3.47408 21.4 3.68253 21.6C3.89098 21.8 4.20365 22 4.51633 22H11.6037" stroke="#963CBE" stroke-width="2" stroke-linecap="round" stroke-linejoin="round"/>
</svg>
