<svg width="17" height="13" viewBox="0 0 17 13" fill="none" xmlns="http://www.w3.org/2000/svg">
<path d="M4.707 1.70643C4.88916 1.51783 4.98995 1.26523 4.98767 1.00303C4.9854 0.740833 4.88023 0.49002 4.69482 0.304612C4.50941 0.119204 4.2586 0.014035 3.9964 0.0117566C3.7342 0.00947813 3.4816 0.110273 3.293 0.292431L4.707 1.70643ZM1 3.99943L0.293 3.29243C0.105529 3.47996 0.000213623 3.73427 0.000213623 3.99943C0.000213623 4.2646 0.105529 4.5189 0.293 4.70643L1 3.99943ZM3.293 7.70643C3.38525 7.80194 3.49559 7.87812 3.6176 7.93053C3.7396 7.98294 3.87082 8.01053 4.0036 8.01168C4.13638 8.01284 4.26806 7.98753 4.39095 7.93725C4.51385 7.88697 4.6255 7.81272 4.71939 7.71883C4.81329 7.62493 4.88754 7.51328 4.93782 7.39038C4.9881 7.26749 5.0134 7.13581 5.01225 7.00303C5.0111 6.87025 4.98351 6.73903 4.9311 6.61703C4.87869 6.49502 4.80251 6.38468 4.707 6.29243L3.293 7.70643ZM1 10.9994C0.734784 10.9994 0.48043 11.1048 0.292893 11.2923C0.105357 11.4799 0 11.7342 0 11.9994C0 12.2646 0.105357 12.519 0.292893 12.7065C0.48043 12.8941 0.734784 12.9994 1 12.9994V10.9994ZM3.293 0.292431L0.293 3.29243L1.707 4.70643L4.707 1.70643L3.293 0.292431ZM0.293 4.70643L3.293 7.70643L4.707 6.29243L1.707 3.29243L0.293 4.70643ZM1 4.99943H12V2.99943H1V4.99943ZM15 7.99943C15 8.79508 14.6839 9.55814 14.1213 10.1208C13.5587 10.6834 12.7956 10.9994 12 10.9994V12.9994C13.3261 12.9994 14.5979 12.4726 15.5355 11.535C16.4732 10.5973 17 9.32551 17 7.99943H15ZM12 4.99943C12.7956 4.99943 13.5587 5.3155 14.1213 5.87811C14.6839 6.44072 15 7.20378 15 7.99943H17C17 6.67335 16.4732 5.40158 15.5355 4.4639C14.5979 3.52621 13.3261 2.99943 12 2.99943V4.99943ZM1 12.9994H12V10.9994H1V12.9994Z" fill="white"/>
</svg>
