<svg width="20" height="19" viewBox="0 0 20 19" fill="none" xmlns="http://www.w3.org/2000/svg">
<path fill-rule="evenodd" clip-rule="evenodd" d="M7.56 2.00002H3C2.73478 2.00002 2.48043 2.10538 2.29289 2.29292C2.10536 2.48045 2 2.73481 2 3.00002V16C2 16.2652 2.10536 16.5196 2.29289 16.7071C2.48043 16.8947 2.73478 17 3 17H9C9.26522 17 9.51957 17.1054 9.70711 17.2929C9.89464 17.4805 10 17.7348 10 18C10 18.2652 9.89464 18.5196 9.70711 18.7071C9.51957 18.8947 9.26522 19 9 19H3C2.20435 19 1.44129 18.684 0.87868 18.1213C0.31607 17.5587 0 16.7957 0 16V3.00002C0 2.20437 0.31607 1.44131 0.87868 0.878702C1.44129 0.316093 2.20435 2.23036e-05 3 2.23036e-05H7.56C8.18236 -0.0023769 8.79005 0.188841 9.2989 0.547183C9.80775 0.905526 10.1926 1.41325 10.4 2.00002L10.72 3.00002H17C17.7956 3.00002 18.5587 3.31609 19.1213 3.8787C19.6839 4.44131 20 5.20437 20 6.00002C20 6.26524 19.8946 6.51959 19.7071 6.70713C19.5196 6.89467 19.2652 7.00002 19 7.00002C18.7348 7.00002 18.4804 6.89467 18.2929 6.70713C18.1054 6.51959 18 6.26524 18 6.00002C18 5.73481 17.8946 5.48045 17.7071 5.29292C17.5196 5.10538 17.2652 5.00002 17 5.00002H10C9.79036 5.00056 9.58584 4.9352 9.41537 4.81318C9.2449 4.69116 9.11709 4.51864 9.05 4.32002L8.51 2.68002C8.44291 2.4814 8.3151 2.30889 8.14463 2.18686C7.97416 2.06484 7.76964 1.99948 7.56 2.00002ZM14 14C15.1046 14 16 13.1046 16 12C16 10.8954 15.1046 10 14 10C12.8954 10 12 10.8954 12 12C12 13.1046 12.8954 14 14 14ZM14 16C14.7418 16 15.4364 15.7981 16.0319 15.4462L17.8283 17.2426C18.2188 17.6332 18.852 17.6332 19.2425 17.2426C19.633 16.8521 19.633 16.219 19.2425 15.8284L17.4461 14.0321C17.798 13.4365 18 12.7418 18 12C18 9.79086 16.2091 8 14 8C11.7909 8 10 9.79086 10 12C10 14.2091 11.7909 16 14 16Z" fill="#0E2E4A"/>
</svg>
