<svg width="22" height="22" viewBox="0 0 22 22" fill="none" xmlns="http://www.w3.org/2000/svg">
<path d="M8.87671 8.88281C8.58196 9.15746 8.34555 9.48866 8.18158 9.85666C8.01762 10.2247 7.92945 10.6219 7.92234 11.0247C7.91523 11.4275 7.98933 11.8276 8.14022 12.2012C8.2911 12.5748 8.51568 12.9141 8.80055 13.199C9.08543 13.4838 9.42477 13.7084 9.79832 13.8593C10.1719 14.0102 10.572 14.0843 10.9748 14.0772C11.3776 14.0701 11.7749 13.9819 12.1429 13.8179C12.5109 13.654 12.8421 13.4176 13.1167 13.1228" stroke="black" stroke-width="2" stroke-linecap="round" stroke-linejoin="round"/>
<path d="M9.73438 4.08C10.1557 4.02751 10.5798 4.00079 11.0044 4C18.0044 4 21.0044 11 21.0044 11C20.5573 11.9571 19.9966 12.8569 19.3344 13.68" stroke="black" stroke-width="2" stroke-linecap="round" stroke-linejoin="round"/>
<path d="M5.61 5.60938C3.62125 6.964 2.02987 8.82463 1 10.9994C1 10.9994 4 17.9994 11 17.9994C12.9159 18.0045 14.7908 17.4445 16.39 16.3894" stroke="black" stroke-width="2" stroke-linecap="round" stroke-linejoin="round"/>
<path d="M1 1L21 21" stroke="black" stroke-width="2" stroke-linecap="round" stroke-linejoin="round"/>
</svg>
