<?xml version="1.0" standalone="no"?>
<!DOCTYPE svg PUBLIC "-//W3C//DTD SVG 20010904//EN"
 "http://www.w3.org/TR/2001/REC-SVG-20010904/DTD/svg10.dtd">
<svg version="1.0" xmlns="http://www.w3.org/2000/svg"
 width="512.000000pt" height="512.000000pt" viewBox="0 0 512.000000 512.000000"
 preserveAspectRatio="xMidYMid meet">

<g transform="translate(0.000000,512.000000) scale(0.100000,-0.100000)"
fill="#000000" stroke="none">
<path d="M1785 4191 c-533 -167 -767 -244 -783 -259 l-22 -21 0 -658 c0 -362
5 -701 10 -753 65 -622 412 -1174 942 -1497 107 -65 614 -313 640 -313 32 0
585 277 685 342 308 202 554 482 707 803 82 172 129 317 172 535 15 74 18 182
21 815 4 713 4 731 -15 749 -21 18 -1543 496 -1577 495 -11 -1 -362 -108 -780
-238z m1698 -188 l537 -167 0 -635 c0 -670 -4 -747 -49 -932 -51 -214 -162
-460 -289 -639 -86 -122 -272 -313 -388 -401 -127 -95 -213 -144 -484 -276
l-235 -114 -60 27 c-158 71 -479 235 -555 285 -467 305 -769 797 -829 1351 -7
58 -11 350 -11 715 l0 618 208 65 c114 35 441 136 726 225 l519 162 186 -59
c102 -32 428 -133 724 -225z"/>
<path d="M2480 3659 c-86 -15 -193 -71 -261 -136 -111 -105 -150 -196 -158
-366 l-6 -118 -53 -18 c-60 -21 -105 -59 -133 -113 -18 -35 -19 -63 -19 -415
0 -344 2 -382 19 -418 23 -51 79 -101 128 -114 52 -15 1094 -15 1147 0 49 14
121 80 138 127 10 28 13 129 13 407 l0 370 -24 49 c-26 53 -89 101 -148 112
l-33 6 0 67 c0 149 -34 261 -110 363 -113 150 -315 230 -500 197z m155 -140
c197 -36 315 -194 315 -419 l0 -70 -376 0 -376 0 3 113 c4 98 8 119 32 169 50
103 157 185 267 207 63 12 69 12 135 0z m496 -648 l24 -19 3 -329 c2 -180 0
-343 -3 -361 -3 -17 -16 -41 -27 -52 -21 -19 -36 -20 -554 -20 -522 0 -532 0
-558 21 l-26 20 0 360 c0 346 1 360 20 379 20 20 33 20 559 20 515 0 540 -1
562 -19z"/>
<path d="M2504 2686 c-88 -39 -109 -160 -39 -226 21 -20 25 -33 25 -85 0 -51
4 -65 23 -83 30 -28 68 -28 95 1 18 19 22 35 22 83 0 51 4 64 25 84 71 67 49
189 -41 226 -41 17 -70 17 -110 0z"/>
</g>
</svg>
