<svg width="44" height="58" viewBox="0 0 44 58" fill="none" xmlns="http://www.w3.org/2000/svg">
<path d="M21.6846 25.4609C21.5049 25.3861 21.3102 25.3486 21.1006 25.3486C20.6813 25.3486 20.3219 25.4909 20.0225 25.7754C19.723 26.0524 19.5208 26.4043 19.416 26.8311C19.2588 27.5273 19.0941 28.2573 18.9219 29.021C18.7572 29.7772 18.5887 30.5446 18.4165 31.3232C18.2518 32.0944 18.0871 32.8618 17.9224 33.6255C17.7577 34.3817 17.6042 35.1042 17.4619 35.793H17.0801L15.126 26.8311C15.0586 26.5465 14.9575 26.2882 14.8228 26.0562C14.703 25.8615 14.5345 25.6855 14.3174 25.5283C14.1077 25.3636 13.8307 25.2812 13.4863 25.2812C13.2243 25.2812 12.9922 25.3299 12.79 25.4272C12.5954 25.5171 12.4307 25.6369 12.2959 25.7866C12.1686 25.9289 12.0713 26.0861 12.0039 26.2583C11.944 26.4305 11.9141 26.599 11.9141 26.7637C11.9141 26.8535 11.9178 26.9396 11.9253 27.022C11.9328 27.1043 11.944 27.1755 11.959 27.2354C11.974 27.3102 11.9889 27.3776 12.0039 27.4375L15.0361 39.6562C15.1484 39.9108 15.3019 40.1354 15.4966 40.3301C15.6613 40.5023 15.8709 40.6595 16.1255 40.8018C16.3875 40.9365 16.7057 41.0039 17.0801 41.0039H17.4619C17.8363 41.0039 18.1395 40.9365 18.3716 40.8018C18.6112 40.6595 18.8058 40.5023 18.9556 40.3301C19.1203 40.1354 19.2513 39.9108 19.3486 39.6562C19.5957 38.5931 19.854 37.4963 20.1235 36.3657C20.4006 35.2352 20.6589 34.1383 20.8984 33.0752H21.2803L22.8525 39.6562C22.9349 39.9108 23.0584 40.1354 23.2231 40.3301C23.3654 40.5023 23.5563 40.6595 23.7959 40.8018C24.0355 40.9365 24.3424 41.0039 24.7168 41.0039H25.0986C25.473 41.0039 25.7837 40.9365 26.0308 40.8018C26.2853 40.6595 26.4912 40.5023 26.6484 40.3301C26.8356 40.1354 26.9854 39.9108 27.0977 39.6562L30.1748 27.4375C30.1898 27.3776 30.2048 27.3102 30.2197 27.2354C30.2347 27.1755 30.2459 27.1043 30.2534 27.022C30.2609 26.9396 30.2646 26.8535 30.2646 26.7637C30.2646 26.599 30.231 26.4305 30.1636 26.2583C30.1037 26.0861 30.0063 25.9289 29.8716 25.7866C29.7443 25.6369 29.5796 25.5171 29.3774 25.4272C29.1828 25.3299 28.9544 25.2812 28.6924 25.2812C28.348 25.2812 28.0672 25.3636 27.8501 25.5283C27.6405 25.6855 27.4757 25.8615 27.356 26.0562C27.2212 26.2882 27.1201 26.5465 27.0527 26.8311C26.7233 28.2985 26.3939 29.7959 26.0645 31.3232C25.735 32.8431 25.4131 34.333 25.0986 35.793H24.7168L22.7852 26.8311C22.7402 26.6214 22.6654 26.4268 22.5605 26.2471C22.4557 26.0599 22.3285 25.9027 22.1787 25.7754C22.0365 25.6406 21.8717 25.5358 21.6846 25.4609Z" fill="#2B8DE3"/>
<path fill-rule="evenodd" clip-rule="evenodd" d="M6.00544 0.0577727C1.15372 1.05107 -0.0195736 4.88629 0.00024551 6.67974L0.000245524 51.6737C0.475904 55.6468 4.1028 57.527 6.00544 58H37.8746C41.6798 57.6216 43.5428 53.5854 43.9987 51.6145C43.9789 42.5882 43.9511 23.5066 43.9987 19.3916C44.0463 15.2765 42.7897 13.3411 42.1555 12.8878C39.7772 10.3849 34.4142 4.78775 31.9883 2.42276C29.5624 0.0577729 27.3308 -0.13931 26.5182 0.0577727H6.00544ZM6.66871 6C5.2868 6.04605 4.98103 7.2473 5.00089 7.84217L5.06047 50.3847C5.06047 51.7663 6.72829 52.035 7.5622 51.9966H36.3917C37.3448 51.9505 37.861 50.9028 38 50.3847V18.4346H28.1717C26.1227 18.3886 25.1339 16.8227 25.1339 15.0957V6H6.66871Z" fill="#2B8DE3"/>
</svg>
